<svg width="38" height="37" viewBox="0 0 38 37" fill="none" xmlns="http://www.w3.org/2000/svg">
<path d="M19 36.8333C16.4945 36.8333 14.1264 36.3521 11.8959 35.3896C9.6653 34.4271 7.71738 33.1132 6.0521 31.4479C4.38683 29.7826 3.07294 27.8347 2.11044 25.6042C1.14794 23.3736 0.666687 21.0055 0.666687 18.5C0.666687 15.9639 1.14794 13.5882 2.11044 11.3729C3.07294 9.15763 4.38683 7.21735 6.0521 5.55207C7.71738 3.8868 9.6653 2.57291 11.8959 1.61041C14.1264 0.647906 16.4945 0.166656 19 0.166656C21.5361 0.166656 23.9118 0.647906 26.1271 1.61041C28.3424 2.57291 30.2827 3.8868 31.9479 5.55207C33.6132 7.21735 34.9271 9.15763 35.8896 11.3729C36.8521 13.5882 37.3334 15.9639 37.3334 18.5C37.3334 21.0055 36.8521 23.3736 35.8896 25.6042C34.9271 27.8347 33.6132 29.7826 31.9479 31.4479C30.2827 33.1132 28.3424 34.4271 26.1271 35.3896C23.9118 36.3521 21.5361 36.8333 19 36.8333ZM19 33.075C19.7945 31.975 20.482 30.8292 21.0625 29.6375C21.6431 28.4458 22.1167 27.1778 22.4834 25.8333H15.5167C15.8834 27.1778 16.357 28.4458 16.9375 29.6375C17.5181 30.8292 18.2056 31.975 19 33.075ZM14.2334 32.3417C13.6834 31.3333 13.2021 30.2868 12.7896 29.2021C12.3771 28.1174 12.0334 26.9944 11.7584 25.8333H6.35002C7.23613 27.3611 8.34377 28.6903 9.67294 29.8208C11.0021 30.9514 12.5222 31.7917 14.2334 32.3417ZM23.7667 32.3417C25.4778 31.7917 26.9979 30.9514 28.3271 29.8208C29.6563 28.6903 30.7639 27.3611 31.65 25.8333H26.2417C25.9667 26.9944 25.6229 28.1174 25.2104 29.2021C24.7979 30.2868 24.3167 31.3333 23.7667 32.3417ZM4.79169 22.1667H11.025C10.9334 21.5555 10.8646 20.9521 10.8188 20.3562C10.7729 19.7604 10.75 19.1417 10.75 18.5C10.75 17.8583 10.7729 17.2396 10.8188 16.6437C10.8646 16.0479 10.9334 15.4444 11.025 14.8333H4.79169C4.63891 15.4444 4.52433 16.0479 4.44794 16.6437C4.37155 17.2396 4.33335 17.8583 4.33335 18.5C4.33335 19.1417 4.37155 19.7604 4.44794 20.3562C4.52433 20.9521 4.63891 21.5555 4.79169 22.1667ZM14.6917 22.1667H23.3084C23.4 21.5555 23.4688 20.9521 23.5146 20.3562C23.5604 19.7604 23.5834 19.1417 23.5834 18.5C23.5834 17.8583 23.5604 17.2396 23.5146 16.6437C23.4688 16.0479 23.4 15.4444 23.3084 14.8333H14.6917C14.6 15.4444 14.5313 16.0479 14.4854 16.6437C14.4396 17.2396 14.4167 17.8583 14.4167 18.5C14.4167 19.1417 14.4396 19.7604 14.4854 20.3562C14.5313 20.9521 14.6 21.5555 14.6917 22.1667ZM26.975 22.1667H33.2084C33.3611 21.5555 33.4757 20.9521 33.5521 20.3562C33.6285 19.7604 33.6667 19.1417 33.6667 18.5C33.6667 17.8583 33.6285 17.2396 33.5521 16.6437C33.4757 16.0479 33.3611 15.4444 33.2084 14.8333H26.975C27.0667 15.4444 27.1354 16.0479 27.1813 16.6437C27.2271 17.2396 27.25 17.8583 27.25 18.5C27.25 19.1417 27.2271 19.7604 27.1813 20.3562C27.1354 20.9521 27.0667 21.5555 26.975 22.1667ZM26.2417 11.1667H31.65C30.7639 9.63888 29.6563 8.30971 28.3271 7.17916C26.9979 6.0486 25.4778 5.20832 23.7667 4.65832C24.3167 5.66666 24.7979 6.71318 25.2104 7.79791C25.6229 8.88263 25.9667 10.0055 26.2417 11.1667ZM15.5167 11.1667H22.4834C22.1167 9.82221 21.6431 8.55416 21.0625 7.36249C20.482 6.17082 19.7945 5.02499 19 3.92499C18.2056 5.02499 17.5181 6.17082 16.9375 7.36249C16.357 8.55416 15.8834 9.82221 15.5167 11.1667ZM6.35002 11.1667H11.7584C12.0334 10.0055 12.3771 8.88263 12.7896 7.79791C13.2021 6.71318 13.6834 5.66666 14.2334 4.65832C12.5222 5.20832 11.0021 6.0486 9.67294 7.17916C8.34377 8.30971 7.23613 9.63888 6.35002 11.1667Z" fill="white"/>
</svg>
