<svg width="100" height="55" viewBox="0 0 100 55" fill="none" xmlns="http://www.w3.org/2000/svg">
<rect x="0.5" y="0.5" width="99" height="54" rx="19.5" stroke="white"/>
<mask id="mask0_2_119" style="mask-type:alpha" maskUnits="userSpaceOnUse" x="9" y="5" width="44" height="44">
<rect x="9" y="5" width="44" height="44" fill="#D9D9D9"/>
</mask>
<g mask="url(#mask0_2_119)">
<path d="M19.725 36.35C21.2834 35.1583 23.025 34.2187 24.95 33.5312C26.875 32.8437 28.8917 32.5 31 32.5C33.1084 32.5 35.125 32.8437 37.05 33.5312C38.975 34.2187 40.7167 35.1583 42.275 36.35C43.3445 35.0972 44.1771 33.6764 44.7729 32.0875C45.3688 30.4986 45.6667 28.8028 45.6667 27C45.6667 22.9361 44.2382 19.4757 41.3813 16.6187C38.5243 13.7618 35.0639 12.3333 31 12.3333C26.9361 12.3333 23.4757 13.7618 20.6188 16.6187C17.7618 19.4757 16.3334 22.9361 16.3334 27C16.3334 28.8028 16.6313 30.4986 17.2271 32.0875C17.8229 33.6764 18.6556 35.0972 19.725 36.35ZM31 28.8333C29.1972 28.8333 27.6771 28.2146 26.4396 26.9771C25.2021 25.7396 24.5834 24.2194 24.5834 22.4167C24.5834 20.6139 25.2021 19.0937 26.4396 17.8562C27.6771 16.6187 29.1972 16 31 16C32.8028 16 34.3229 16.6187 35.5604 17.8562C36.7979 19.0937 37.4167 20.6139 37.4167 22.4167C37.4167 24.2194 36.7979 25.7396 35.5604 26.9771C34.3229 28.2146 32.8028 28.8333 31 28.8333ZM31 45.3333C28.4639 45.3333 26.0806 44.8521 23.85 43.8896C21.6195 42.9271 19.6792 41.6208 18.0292 39.9708C16.3792 38.3208 15.0729 36.3805 14.1104 34.15C13.1479 31.9194 12.6667 29.5361 12.6667 27C12.6667 24.4639 13.1479 22.0805 14.1104 19.85C15.0729 17.6194 16.3792 15.6792 18.0292 14.0292C19.6792 12.3792 21.6195 11.0729 23.85 10.1104C26.0806 9.14791 28.4639 8.66666 31 8.66666C33.5361 8.66666 35.9195 9.14791 38.15 10.1104C40.3806 11.0729 42.3209 12.3792 43.9709 14.0292C45.6209 15.6792 46.9271 17.6194 47.8896 19.85C48.8521 22.0805 49.3334 24.4639 49.3334 27C49.3334 29.5361 48.8521 31.9194 47.8896 34.15C46.9271 36.3805 45.6209 38.3208 43.9709 39.9708C42.3209 41.6208 40.3806 42.9271 38.15 43.8896C35.9195 44.8521 33.5361 45.3333 31 45.3333ZM31 41.6667C32.6195 41.6667 34.1472 41.4299 35.5834 40.9562C37.0195 40.4826 38.3334 39.8028 39.525 38.9167C38.3334 38.0305 37.0195 37.3507 35.5834 36.8771C34.1472 36.4035 32.6195 36.1667 31 36.1667C29.3806 36.1667 27.8528 36.4035 26.4167 36.8771C24.9806 37.3507 23.6667 38.0305 22.475 38.9167C23.6667 39.8028 24.9806 40.4826 26.4167 40.9562C27.8528 41.4299 29.3806 41.6667 31 41.6667ZM31 25.1667C31.7945 25.1667 32.4514 24.9069 32.9709 24.3875C33.4903 23.868 33.75 23.2111 33.75 22.4167C33.75 21.6222 33.4903 20.9653 32.9709 20.4458C32.4514 19.9264 31.7945 19.6667 31 19.6667C30.2056 19.6667 29.5486 19.9264 29.0292 20.4458C28.5097 20.9653 28.25 21.6222 28.25 22.4167C28.25 23.2111 28.5097 23.868 29.0292 24.3875C29.5486 24.9069 30.2056 25.1667 31 25.1667Z" fill="white"/>
</g>
<mask id="mask1_2_119" style="mask-type:alpha" maskUnits="userSpaceOnUse" x="53" y="10" width="34" height="34">
<rect x="53" y="10" width="34" height="34" fill="#D9D9D9"/>
</mask>
<g mask="url(#mask1_2_119)">
<path d="M70 31.8167L61.5 23.3167L63.4833 21.3333L70 27.85L76.5167 21.3333L78.5 23.3167L70 31.8167Z" fill="white"/>
</g>
</svg>
